<?xml version="1.0" standalone="no"?>
<!DOCTYPE svg PUBLIC "-//W3C//DTD SVG 20010904//EN"
 "http://www.w3.org/TR/2001/REC-SVG-20010904/DTD/svg10.dtd">
<svg version="1.0" xmlns="http://www.w3.org/2000/svg"
 width="26.000000pt" height="26.000000pt" viewBox="0 0 26.000000 26.000000"
 preserveAspectRatio="xMidYMid meet">

<g transform="translate(0.000000,26.000000) scale(0.100000,-0.100000)"
fill="#000000" stroke="none">
<path d="M42 248 c-16 -16 -16 -220 0 -236 16 -16 160 -16 176 0 15 15 16 58
2 58 -5 0 -10 -11 -10 -25 0 -25 -1 -25 -80 -25 l-80 0 0 110 0 110 80 0 c79
0 80 0 80 -25 0 -14 5 -25 10 -25 14 0 13 43 -2 58 -16 16 -160 16 -176 0z"/>
<path d="M160 175 c0 -10 -11 -15 -35 -15 -32 0 -35 -2 -35 -30 0 -28 3 -30
35 -30 24 0 35 -5 35 -15 0 -22 11 -18 48 15 l32 30 -32 30 c-37 33 -48 37
-48 15z"/>
</g>
</svg>
